<svg xmlns="http://www.w3.org/2000/svg" viewBox="0 0 36.33 40.36"><defs><style>.cls-1{fill:#2b504f;}.cls-2{fill:#4f7c7a;}</style></defs><g id="圖層_2" data-name="圖層 2"><g id="圖層_1-2" data-name="圖層 1"><path class="cls-1" d="M3.46,37.68H.68v-.53H3.46Z"/><path class="cls-1" d="M5.58,34.51l.76.14c.19,0,.28.09.28.17s-.07.11-.21.16a.18.18,0,0,0-.14.15c-.06.23-.11.46-.17.7h.29a1.37,1.37,0,0,1,.27-.24.28.28,0,0,1,.17-.08,1,1,0,0,1,.4.23c.2.15.3.26.3.32s0,.11-.16.16-.13.07-.14.12a11.1,11.1,0,0,1-.37,1.6,4,4,0,0,1-.19.46l.14.06a1.59,1.59,0,0,1,.6.43.6.6,0,0,1,.07.3.46.46,0,0,1-.09.29.46.46,0,0,1-.28.14c-.07,0-.16-.09-.3-.27a3.67,3.67,0,0,0-.4-.47L6.34,39a3.68,3.68,0,0,1-.74.8,4.82,4.82,0,0,1-.93.57l0-.11a5.94,5.94,0,0,0,.67-.65,3.76,3.76,0,0,0,.51-.74A3.68,3.68,0,0,0,6,38.52l-.53-.31a2.25,2.25,0,0,0-.08.24c0,.1-.17.15-.38.15s-.35-.05-.35-.15A19.34,19.34,0,0,0,5.33,36h0a6.16,6.16,0,0,0-.68,0l-.11-.25a7.21,7.21,0,0,0,.79,0h.07A11.24,11.24,0,0,0,5.58,34.51Zm.5,3.69c0-.14.1-.3.15-.47A10,10,0,0,0,6.52,36H6.06c-.17.63-.36,1.31-.58,2ZM7.64,35a8.31,8.31,0,0,1,.91.33h.61l.2-.21c.1-.11.17-.17.21-.17a.92.92,0,0,1,.39.21c.23.17.35.29.35.35s-.06.13-.16.2A.29.29,0,0,0,10,36v2.7L10.08,40q0,.12-.36.18l-.23,0c-.12,0-.17-.07-.17-.2v-.4H8.4v.53q0,.12-.33.18a.87.87,0,0,1-.2,0,.18.18,0,0,1-.21-.2q0-.34,0-.69V36C7.69,35.66,7.67,35.35,7.64,35Zm.76,4.32h.92V35.55H8.4Z"/><path class="cls-1" d="M12.16,34.56a4.89,4.89,0,0,1,.92.34h2.61a2.46,2.46,0,0,1,.28-.28.26.26,0,0,1,.18-.11,1.09,1.09,0,0,1,.38.19c.24.16.35.26.35.32a.26.26,0,0,1-.14.19.24.24,0,0,0-.11.2v1c0,.2,0,.48,0,.84q0,.12-.33.18l-.23,0c-.11,0-.17-.07-.17-.2v-.08H14.77v.75h1.55a1.59,1.59,0,0,0,.23-.28c.16-.2.26-.31.29-.31s.22.1.4.3.28.31.28.35,0,.11-.12.11H14.9a4.22,4.22,0,0,0,1.12.75,6.25,6.25,0,0,0,1.35.39l0,.15a.7.7,0,0,0-.44.43c-.05.16-.11.24-.17.24a1.76,1.76,0,0,1-.57-.29,3.84,3.84,0,0,1-.86-.73,4.87,4.87,0,0,1-.54-.7v1.84c0,.08-.11.15-.33.19l-.22,0a.19.19,0,0,1-.21-.21,7.17,7.17,0,0,0,.06-1.07v-.52a5.26,5.26,0,0,1-1,.77,6.16,6.16,0,0,1-1.63.72l0-.08a5.68,5.68,0,0,0,1.22-.85,4.32,4.32,0,0,0,1-1H12.47a7,7,0,0,0-.79,0l-.1-.26a4.92,4.92,0,0,0,.89.06h1.6v-.75H12.92v.1c0,.09-.11.15-.32.19l-.21,0a.18.18,0,0,1-.2-.21c0-.23,0-.45,0-.68V35.51A7.34,7.34,0,0,0,12.16,34.56Zm.76,1.38h1.15v-.87H12.92Zm0,1h1.15v-.86H12.92Zm1.85-1.9v.87h1.15v-.87Zm0,1V37h1.15v-.86Z"/><path class="cls-1" d="M19.1,35a9.9,9.9,0,0,0,1,0H21V35a3.75,3.75,0,0,0-.05-.56l.81.11c.17,0,.25.05.25.13s0,.07-.14.11-.16.12-.16.19v.1h.81l.21-.2c.09-.11.16-.16.2-.16a.83.83,0,0,1,.36.22q.3.23.3.3c0,.06,0,.11-.12.17s-.14.14-.14.2v.14h.19l.16-.21c.12-.16.19-.23.21-.23s.18.07.32.23a.88.88,0,0,1,.21.28c0,.06,0,.1-.09.1h-1c0,.22,0,.36,0,.43v.16c0,.08-.11.14-.34.18l-.22,0a.16.16,0,0,1-.17-.13h-.92v.49h1.2l.15-.19c.11-.13.18-.2.2-.2s.16.07.29.21.19.22.19.25,0,.1-.08.1h-2v.53h1.62s.09-.08.21-.22.23-.25.26-.25.18.08.34.24.23.27.23.31,0,.11-.09.11H18.54l-.1-.25a6.37,6.37,0,0,0,.89,0H21v-.53H19.79l-.79,0L18.9,37a4.92,4.92,0,0,0,.89.06H21v-.49H19.91a7.18,7.18,0,0,0-.73,0l-.11-.26a6.53,6.53,0,0,0,.84,0H21v-.48H19.38a7.17,7.17,0,0,0-.79,0l-.1-.25a6.37,6.37,0,0,0,.89.05H21v-.49h-.89l-.94,0Zm.17,3a5.65,5.65,0,0,1,.92.33h2.36l.26-.26A.33.33,0,0,1,23,38a1.08,1.08,0,0,1,.35.18q.33.22.33.3c0,.06-.05.12-.13.18a.21.21,0,0,0-.1.18v.46q0,.3,0,.81c0,.08-.11.15-.33.19l-.2,0q-.18,0-.18-.21V40H20v.18c0,.08-.11.15-.32.19l-.21,0a.19.19,0,0,1-.21-.21c0-.23,0-.45,0-.68V39A7.19,7.19,0,0,0,19.27,38.07Zm.77,1h2.72v-.5H20Zm0,.72h2.72v-.53H20Zm1.7-4.55v.49h.92v-.49Zm0,.66v.48h.92v-.48Z"/><path class="cls-1" d="M28.14,34.43a7.39,7.39,0,0,1,.86.13c.17,0,.26,0,.26.13s-.05.07-.15.11-.17.11-.17.17v.35H30a1.3,1.3,0,0,0,.21-.23c.18-.22.3-.33.35-.33a1.73,1.73,0,0,1,.47.37c.16.14.24.23.24.28s0,.1-.13.1H26.8v.58A17,17,0,0,1,26.71,38a4.83,4.83,0,0,1-.41,1.35,4.27,4.27,0,0,1-.67,1l-.13-.06a7.85,7.85,0,0,0,.43-1.52,19.17,19.17,0,0,0,.13-2.64A5,5,0,0,0,26,35a5.78,5.78,0,0,1,1,.35h1.25V35A3,3,0,0,0,28.14,34.43Zm.16,1.28c.29,0,.58.07.86.12s.26.05.26.13-.06.07-.17.11-.16.11-.16.17v.51H30a2,2,0,0,0,.21-.23c.17-.22.29-.33.35-.33s.2.12.46.36.24.24.24.28,0,.09-.13.09h-2v1.23h.7l.28-.3a.26.26,0,0,1,.19-.11,1,1,0,0,1,.36.19c.23.15.34.26.34.31s-.05.13-.14.19a.26.26,0,0,0-.11.2v.64c0,.2,0,.48,0,.83,0,.08-.12.15-.34.19l-.22,0q-.18,0-.18-.21v-.21H27.77v.23c0,.09-.11.15-.33.19a1,1,0,0,1-.21,0,.18.18,0,0,1-.2-.21c0-.22,0-.45,0-.68v-.66c0-.32,0-.64,0-.94a7,7,0,0,1,.87.31h.47V36.3A3.92,3.92,0,0,0,28.3,35.71Zm-.53,4H30v-1.4H27.77Z"/><path class="cls-1" d="M35.16,37.68H32.38v-.53h2.78Z"/><path class="cls-1" d="M2.76,4.07a2.37,2.37,0,0,1,2.6-2H8a2.37,2.37,0,0,1,2.6,2V31.2H11c1.07,0,1.94-.4,1.94-.91V.91C13,.41,12.08,0,11,0H1.94C.87,0,0,.41,0,.91V30.29c0,.51.87.91,1.94.91h.82Z"/><path class="cls-2" d="M32.26,29.54c0,.83-.22,1.51-.51,1.51H15.33c-.28,0-.51-.68-.51-1.51v-7c0-.83.23-1.51.51-1.51H31.75c.29,0,.51.68.51,1.51Z"/><path class="cls-2" d="M32.26,19.37c0,.17-.22.3-.51.3H15.33c-.28,0-.51-.13-.51-.3V17.94c0-.17.23-.3.51-.3H31.75c.29,0,.51.13.51.3Z"/><rect class="cls-1" x="3.73" y="3.72" width="0.72" height="27.49"/><rect class="cls-1" x="5.09" y="3.72" width="0.72" height="27.49"/><rect class="cls-1" x="6.44" y="3.72" width="0.72" height="27.49"/><rect class="cls-1" x="7.8" y="3.72" width="0.72" height="27.49"/><rect class="cls-1" x="9.15" y="3.72" width="0.72" height="27.49"/><path class="cls-1" d="M33.44,17.64V29.11a4,4,0,0,1-.31,1.54,4.06,4.06,0,0,0,3.2-4V21.51A4,4,0,0,0,33.44,17.64Z"/></g></g></svg>