<svg xmlns="http://www.w3.org/2000/svg" viewBox="0 0 144.86 57"><defs><style>.cls-1{fill:#2b504f;}.cls-2{fill:#4f7c7a;}</style></defs><g id="圖層_2" data-name="圖層 2"><g id="圖層_1-2" data-name="圖層 1"><path class="cls-1" d="M69.67,34.28c.8.15,1.54.3,2.23.47s.83.29.83.56-.21.4-.62.55a.63.63,0,0,0-.42.49l-.48,2.37h.84a5.94,5.94,0,0,1,.78-.83,1,1,0,0,1,.5-.26c.21,0,.6.26,1.19.77s.87.89.87,1.09-.16.38-.48.53-.39.24-.42.41a39.8,39.8,0,0,1-1.07,5.37,16.43,16.43,0,0,1-.55,1.56l.4.19A4.44,4.44,0,0,1,75,49a2.23,2.23,0,0,1,.22,1A1.52,1.52,0,0,1,75,51a1.18,1.18,0,0,1-.81.47c-.19,0-.47-.3-.86-.88A12.06,12.06,0,0,0,72.11,49a3.79,3.79,0,0,1-.21.38A12,12,0,0,1,69.73,52,13.07,13.07,0,0,1,67,53.93l-.15-.36a18.74,18.74,0,0,0,2-2.18,12.42,12.42,0,0,0,1.49-2.49c.16-.33.32-.71.48-1.13-.44-.33-1-.69-1.56-1.07-.09.27-.17.55-.24.83s-.49.49-1.1.49-1-.16-1-.49A72.82,72.82,0,0,0,69,39.34h-.11a19.17,19.17,0,0,0-2,.08l-.31-.85a18.6,18.6,0,0,0,2.3.15h.22A41.92,41.92,0,0,0,69.67,34.28Zm1.49,12.4c.14-.48.29-1,.42-1.58a38.74,38.74,0,0,0,.86-5.76H71.08c-.48,2.15-1,4.41-1.69,6.78Zm4.55-10.6a18.6,18.6,0,0,1,2.67,1.1h1.77c.23-.27.43-.51.59-.72.29-.37.49-.56.61-.56a2.61,2.61,0,0,1,1.16.69c.67.59,1,1,1,1.19s-.16.42-.47.66a1.1,1.1,0,0,0-.35.73v9l.15,4.33c0,.28-.36.49-1.06.62a5.46,5.46,0,0,1-.65.06c-.35,0-.52-.23-.52-.68V51.2H77.93V53c0,.27-.32.48-1,.62a3.53,3.53,0,0,1-.6.07c-.39,0-.59-.23-.59-.69,0-.77.07-1.54.07-2.32V39.25C75.85,38.16,75.8,37.1,75.71,36.08Zm2.22,14.5h2.68V37.78H77.93Z"/><path class="cls-1" d="M89,34.45a16,16,0,0,1,2.69,1.13h7.63a7.93,7.93,0,0,1,.8-.93c.19-.25.37-.37.52-.37a3,3,0,0,1,1.14.64c.68.53,1,.88,1,1.07a.87.87,0,0,1-.41.64.82.82,0,0,0-.33.66V40.6c0,.68,0,1.62.07,2.82,0,.28-.33.49-1,.61a4.35,4.35,0,0,1-.65.07c-.34,0-.5-.23-.5-.68v-.26H96.58v2.5h4.54a9.62,9.62,0,0,0,.66-.92q.7-1.05.84-1.05c.25,0,.64.34,1.17,1a3.76,3.76,0,0,1,.82,1.19c0,.23-.12.34-.36.34H96.94a12.4,12.4,0,0,0,3.3,2.52,17,17,0,0,0,3.94,1.34l-.07.49A2.18,2.18,0,0,0,102.84,52c-.14.54-.32.81-.52.81a4.76,4.76,0,0,1-1.65-1,12.18,12.18,0,0,1-2.53-2.46,16.79,16.79,0,0,1-1.56-2.35v6.17c0,.28-.33.5-1,.64a5.64,5.64,0,0,1-.65.06c-.4,0-.6-.23-.6-.7a28.87,28.87,0,0,0,.17-3.58V47.9a16.64,16.64,0,0,1-2.88,2.58,18.5,18.5,0,0,1-4.79,2.43l-.06-.28a17.23,17.23,0,0,0,3.59-2.86,13.55,13.55,0,0,0,2.79-3.54H89.84a16.75,16.75,0,0,0-2.3.11l-.32-.86a14.44,14.44,0,0,0,2.62.18h4.68v-2.5H91.16v.34c0,.28-.31.49-1,.62a4.66,4.66,0,0,1-.61.06c-.38,0-.58-.22-.58-.68,0-.77.08-1.53.08-2.28V37.63C89.1,36.54,89,35.48,89,34.45Zm2.21,4.63h3.36V36.16H91.16Zm0,3.48h3.36v-2.9H91.16Zm5.42-6.4v2.92H100V36.16Zm0,3.5v2.9H100v-2.9Z"/><path class="cls-1" d="M109.23,36.12a23.91,23.91,0,0,0,3,.17h2.61V36a11.19,11.19,0,0,0-.16-1.88c.83.09,1.63.21,2.39.37.49,0,.73.17.73.43,0,.09-.14.22-.41.38A.77.77,0,0,0,117,36v.32h2.37c.24-.24.44-.47.62-.68s.46-.52.59-.52.55.25,1,.73.87.85.87,1a.76.76,0,0,1-.35.58,1,1,0,0,0-.39.68v.45h.54a6.66,6.66,0,0,0,.47-.7c.35-.52.57-.77.63-.77.21,0,.52.25.93.77a3.19,3.19,0,0,1,.62.93c0,.23-.09.34-.27.34h-2.92a11.49,11.49,0,0,0,.08,1.46v.53q0,.4-1,.6a5.29,5.29,0,0,1-.65.06.45.45,0,0,1-.48-.41H117V43h3.51a4.84,4.84,0,0,0,.44-.61c.34-.46.54-.68.6-.68s.45.23.84.7a2.43,2.43,0,0,1,.57.85c0,.21-.08.32-.24.32H117v1.8h4.75a4.75,4.75,0,0,0,.6-.75c.43-.57.68-.85.76-.85s.54.27,1,.83a2.93,2.93,0,0,1,.69,1c0,.23-.09.34-.28.34H109.9c-1.08,0-1.85,0-2.31.07l-.29-.85a15.35,15.35,0,0,0,2.6.17h5v-1.8h-3.64a20.44,20.44,0,0,0-2.32.09l-.28-.85a14.12,14.12,0,0,0,2.6.18h3.64V41.34h-3.28c-.88,0-1.59,0-2.14.09l-.31-.87a15.49,15.49,0,0,0,2.45.17h3.28V39.1h-4.84a16.78,16.78,0,0,0-2.29.11l-.32-.85a15.57,15.57,0,0,0,2.61.17h4.84V36.89h-2.61c-1.29,0-2.21,0-2.74.08Zm.52,10.24a16.93,16.93,0,0,1,2.67,1.13h6.91c.29-.34.54-.63.77-.87s.37-.34.51-.34a2.91,2.91,0,0,1,1,.59c.64.5.95.84.95,1a.84.84,0,0,1-.37.6.72.72,0,0,0-.29.59v1.54c0,.66,0,1.58.09,2.73,0,.28-.32.5-1,.64a4.59,4.59,0,0,1-.59.06c-.35,0-.52-.23-.52-.7v-.6h-8v.6c0,.28-.32.5-1,.64a5.17,5.17,0,0,1-.61.06c-.41,0-.62-.23-.62-.7.05-.76.08-1.52.08-2.28V49.54Q109.9,47.89,109.75,46.36ZM112,49.77h8v-1.7h-8Zm0,2.41h8V50.39h-8Zm5-15.29v1.64h2.69V36.89Zm0,2.21v1.63h2.69V39.1Z"/><path class="cls-1" d="M135.7,34.2c.88.1,1.71.23,2.51.4.5,0,.76.17.76.47,0,.09-.15.21-.45.37s-.5.35-.5.57v1.17h3.12a6.35,6.35,0,0,0,.61-.76c.52-.75.87-1.11,1-1.11s.6.4,1.37,1.22c.47.48.71.79.71.93s-.14.34-.4.34h-12.7v1.94c0,2.41-.09,4.51-.26,6.32a18.41,18.41,0,0,1-1.19,4.52,15.64,15.64,0,0,1-1.95,3.35l-.39-.19a29.35,29.35,0,0,0,1.24-5.12,72.1,72.1,0,0,0,.39-8.88,21.63,21.63,0,0,0-.22-3.73,15.79,15.79,0,0,1,2.81,1.17h3.65v-1A13.11,13.11,0,0,0,135.7,34.2Zm.46,4.29c.86.1,1.69.22,2.51.38.51,0,.76.18.76.47q0,.12-.48.36c-.32.16-.48.35-.48.58V42h2.6a6.87,6.87,0,0,0,.61-.78q.78-1.11,1-1.11c.15,0,.61.4,1.37,1.21.46.5.69.81.69.94s-.12.32-.37.32h-5.92v4.12h2.06c.29-.38.57-.72.82-1s.37-.39.53-.39a2.94,2.94,0,0,1,1.08.65c.66.52,1,.88,1,1.06a.87.87,0,0,1-.41.64.8.8,0,0,0-.32.64v2.16c0,.68,0,1.61.08,2.81,0,.27-.34.48-1,.62a4.89,4.89,0,0,1-.63.06c-.35,0-.52-.22-.52-.68v-.7H134.6v.77q0,.42-1,.63a3.75,3.75,0,0,1-.6.07c-.39,0-.59-.24-.59-.7,0-.76.05-1.53.05-2.31V48.79c0-1.08,0-2.13-.13-3.13a14.74,14.74,0,0,1,2.55,1h1.39V40.45A13.14,13.14,0,0,0,136.16,38.49ZM134.6,52h6.54V47.25H134.6Z"/><path class="cls-1" d="M4.39,7.44A4,4,0,0,1,8.53,3.72h4.22a3.94,3.94,0,0,1,4.13,3.72V57h.63c1.71,0,3.09-.74,3.09-1.66V1.67C20.6.75,19.22,0,17.51,0H3.09C1.39,0,0,.75,0,1.67V55.34C0,56.26,1.39,57,3.09,57h1.3Z"/><path class="cls-2" d="M51.32,54c0,1.53-.36,2.76-.81,2.76H24.39c-.45,0-.82-1.23-.82-2.76V41.09c0-1.52.37-2.76.82-2.76H50.51c.45,0,.81,1.24.81,2.76Z"/><path class="cls-2" d="M51.32,35.38c0,.31-.36.56-.81.56H24.39c-.45,0-.82-.25-.82-.56v-2.6c0-.31.37-.56.82-.56H50.51c.45,0,.81.25.81.56Z"/><rect class="cls-1" x="5.94" y="6.79" width="1.15" height="50.21"/><rect class="cls-1" x="8.09" y="6.79" width="1.15" height="50.21"/><rect class="cls-1" x="10.24" y="6.79" width="1.15" height="50.21"/><rect class="cls-1" x="12.4" y="6.79" width="1.15" height="50.21"/><rect class="cls-1" x="14.55" y="6.79" width="1.15" height="50.21"/><path class="cls-1" d="M53.19,32.22v21A8.33,8.33,0,0,1,52.7,56a7.25,7.25,0,0,0,5.08-7.24V39.29A7.34,7.34,0,0,0,53.19,32.22Z"/></g></g></svg>